<?xml version="1.0" standalone="no"?>
<!DOCTYPE svg PUBLIC "-//W3C//DTD SVG 20010904//EN"
 "http://www.w3.org/TR/2001/REC-SVG-20010904/DTD/svg10.dtd">
<svg version="1.0" xmlns="http://www.w3.org/2000/svg"
 width="1436.000000pt" height="762.000000pt" viewBox="0 0 1436.000000 762.000000"
 preserveAspectRatio="xMidYMid meet">
<metadata>
Created by potrace 1.15, written by Peter Selinger 2001-2017
</metadata>
<g transform="translate(0.000000,762.000000) scale(0.100000,-0.100000)"
fill="#000000" stroke="none">
<path d="M0 4770 c0 -2807 0 -2849 19 -2860 12 -6 105 -10 234 -10 118 0 262
-3 320 -7 l107 -6 0 -529 0 -528 5040 0 5040 0 0 325 0 325 -865 0 -865 0 -2
1242 c-2 776 -6 1216 -12 1171 l-9 -73 -38 -10 c-23 -6 -40 -18 -44 -30 -4
-11 -9 -20 -13 -21 -44 -6 -65 -3 -81 12 -16 15 -21 16 -30 5 -9 -11 -6 -15
14 -20 22 -6 24 -9 15 -26 -14 -26 -58 -70 -70 -70 -6 0 -10 9 -10 19 0 11 -9
23 -20 26 -11 3 -20 10 -20 15 0 5 -7 7 -15 4 -8 -4 -22 -1 -30 6 -25 21 -69
8 -85 -26 -14 -30 -19 -32 -84 -39 -44 -4 -72 -3 -79 4 -6 6 -22 11 -35 11
-13 0 -31 4 -41 10 -14 7 -23 4 -39 -15 -12 -14 -28 -25 -37 -25 -8 0 -19 -9
-25 -20 -16 -31 -53 -26 -66 9 -9 23 -19 29 -50 33 -29 4 -43 1 -57 -13 -10
-11 -23 -19 -30 -19 -13 0 -36 -15 -93 -63 -18 -16 -39 -30 -46 -31 -66 -14
-105 -36 -94 -55 11 -18 -32 -52 -68 -54 -31 -2 -34 -4 -19 -14 14 -11 14 -13
2 -13 -8 0 -24 7 -35 15 -25 19 -118 20 -136 1 -8 -7 -25 -16 -38 -20 -14 -4
-35 -12 -47 -18 -28 -14 -55 6 -51 36 2 16 11 22 36 24 20 2 32 8 29 15 -2 7
11 31 30 55 19 23 31 42 27 42 -4 0 3 11 16 26 18 18 21 27 12 33 -7 4 -14 22
-16 39 -3 17 -8 37 -12 43 -4 6 -7 21 -8 33 -1 18 -9 22 -53 27 -89 11 -107
18 -93 34 19 23 -40 78 -75 69 -17 -4 -32 -1 -44 10 -10 9 -23 16 -29 14 -20
-6 -14 17 7 28 l22 11 -21 6 c-12 3 -32 2 -43 -3 -12 -5 -16 -9 -9 -9 15 -1
16 -21 1 -21 -6 0 -13 9 -16 19 -3 12 -17 23 -35 26 -19 5 -33 16 -39 32 -9
24 -11 25 -28 9 -24 -21 -73 -20 -116 3 -35 18 -98 17 -95 -3 1 -5 -11 -17
-27 -27 -15 -10 -24 -19 -20 -19 5 0 1 -7 -7 -16 -9 -8 -16 -29 -16 -45 0 -22
-5 -29 -19 -29 -28 0 -52 -11 -45 -21 7 -11 -28 1 -42 16 -6 5 -9 15 -7 21 2
6 -3 17 -12 24 -8 7 -15 17 -15 22 0 12 -26 38 -32 32 -3 -2 -11 9 -18 25 -8
21 -23 34 -49 42 -20 6 -42 16 -48 22 -17 12 -17 52 0 69 22 24 19 45 -9 52
-28 7 -67 -1 -60 -13 6 -9 -17 -7 -57 4 -17 4 -33 3 -41 -4 -8 -7 -26 -9 -42
-5 -16 3 -58 10 -94 14 -76 9 -100 17 -100 35 0 22 -37 55 -63 55 -15 0 -38
11 -52 26 l-26 26 -17 -33 c-18 -37 -44 -48 -67 -29 -18 15 -20 51 -4 67 8 8
8 13 0 17 -6 4 -11 3 -11 -1 0 -5 -10 -10 -22 -10 -16 -2 -19 0 -9 6 11 7 11
10 -2 17 -8 5 -17 22 -19 39 -2 19 -11 34 -28 42 -14 7 -22 13 -17 13 4 0 1
13 -8 30 -15 29 -15 30 10 36 16 4 34 0 50 -10 29 -19 38 -20 30 -3 -4 6 -1 5
7 -3 24 -28 67 -50 73 -39 9 13 -25 38 -42 32 -7 -3 -17 6 -22 18 -5 13 -30
45 -56 72 -25 26 -41 47 -35 47 5 0 8 10 6 23 -2 12 -9 21 -15 20 -14 -4 -14
10 0 24 14 14 -42 27 -84 19 -22 -4 -27 -1 -27 14 0 19 -36 47 -53 42 -11 -3
-5 49 7 66 19 27 62 42 93 33 33 -10 63 2 63 24 0 8 5 15 11 15 6 0 8 -7 5
-17 -6 -15 -4 -15 14 2 20 18 28 41 11 31 -5 -3 -14 7 -19 24 -7 20 -16 28
-25 24 -8 -3 -27 7 -42 22 -21 21 -24 29 -13 35 10 7 8 9 -7 9 -17 1 -16 3 5
11 24 10 24 11 6 25 -11 8 -23 14 -27 14 -12 0 -20 32 -11 44 12 16 14 79 3
109 -6 16 -20 27 -40 32 -26 6 -53 35 -32 35 24 0 35 76 13 85 -21 9 -100 22
-141 24 -8 1 -11 8 -8 21 3 11 0 20 -6 20 -7 0 -5 5 3 10 11 7 11 10 2 10 -9
0 -10 5 -2 19 12 24 13 64 1 56 -5 -3 -16 1 -23 9 -11 10 -19 11 -34 3 -17
-10 -18 -9 -5 7 12 15 11 22 -8 56 -12 22 -19 40 -14 40 4 0 1 5 -7 10 -11 7
-12 10 -2 10 7 0 20 6 28 14 7 8 19 16 26 18 18 6 1 38 -19 37 -11 0 -13 -3
-6 -6 10 -3 9 -8 -2 -20 -13 -13 -17 -13 -30 0 -8 8 -12 16 -10 19 2 2 -6 5
-19 6 -14 1 -32 -8 -44 -23 -12 -14 -28 -25 -36 -25 -8 0 -19 -7 -23 -15 -9
-16 -75 -26 -94 -14 -8 4 -18 4 -24 -1 -5 -4 -14 -10 -20 -12 -5 -1 -9 -7 -7
-12 6 -17 -21 -24 -50 -14 -22 8 -36 7 -52 -2 -35 -18 -59 -9 -79 30 -17 34
-17 35 4 52 12 10 25 16 29 13 4 -3 11 6 14 20 4 14 14 25 23 25 15 0 15 2 -1
19 -16 17 -16 20 1 49 15 26 15 32 3 47 -8 10 -13 30 -12 45 2 15 -4 32 -12
40 -9 7 -16 18 -16 26 0 23 23 64 35 64 19 0 46 47 38 66 -6 15 -1 16 42 11
26 -4 55 -7 65 -7 22 0 63 -73 49 -87 -14 -14 -1 -22 40 -25 17 -1 41 -12 53
-25 22 -24 72 -31 83 -13 3 6 1 10 -5 10 -9 0 -10 26 -7 91 5 85 4 94 -19 129
-29 43 -38 113 -19 150 7 14 11 34 9 44 -6 42 -7 136 -1 143 4 3 7 15 7 25 0
17 89 18 2725 18 l2725 0 0 -490 0 -490 1295 0 1295 0 0 -1840 0 -1840 268 -2
c147 -2 361 -2 475 -2 201 0 209 1 230 22 l22 23 1 477 c1 262 4 1522 8 2799
6 2051 5 2326 -8 2357 l-15 36 -3153 -4 c-1734 -3 -3171 -5 -3193 -5 -22 1
-1828 2 -4012 5 l-3973 4 0 -2850z m364 2807 c16 -12 16 -15 -3 -57 -10 -25
-22 -61 -26 -80 l-8 -35 31 33 c32 34 39 37 61 23 12 -8 11 -20 -7 -82 -12
-40 -20 -74 -18 -76 2 -2 20 30 39 71 20 41 44 79 54 85 21 11 91 7 104 -6 5
-5 2 -29 -5 -53 -7 -25 -16 -58 -20 -75 -14 -58 22 4 45 78 21 68 32 77 69 57
13 -7 21 -7 25 0 10 17 44 11 57 -10 18 -29 25 -25 32 20 9 56 36 120 50 120
7 0 20 -6 29 -13 16 -11 16 -15 3 -43 -19 -37 -59 -202 -53 -217 4 -11 28 36
65 126 12 29 19 32 41 18 12 -8 11 -21 -7 -85 -11 -42 -17 -76 -12 -76 9 0 41
66 59 122 15 46 23 51 46 34 15 -11 16 -17 6 -49 -18 -53 -7 -69 14 -24 11 20
25 37 32 37 7 0 13 -3 13 -6 0 -14 -25 -52 -55 -84 -20 -22 -39 -57 -49 -93
-19 -65 -45 -97 -79 -97 -50 0 -63 55 -22 95 14 15 19 25 11 25 -8 0 -19 7
-26 15 -12 14 -15 14 -31 -1 -27 -24 -53 -14 -59 24 l-5 33 -42 -35 c-22 -20
-50 -36 -62 -36 -20 0 -25 -14 -33 -90 -2 -17 -9 -25 -23 -25 -18 0 -20 6 -19
73 2 69 1 72 -15 58 -22 -20 -50 -20 -57 -1 -5 13 -8 13 -21 0 -20 -20 -50
-19 -62 2 -9 17 -11 17 -29 -1 -11 -10 -29 -16 -39 -14 -20 4 -24 43 -11 108
l7 35 -19 -35 c-11 -19 -24 -52 -30 -73 -16 -54 -44 -48 -48 11 -4 48 22 187
45 245 16 39 29 45 57 24z m7336 -297 l0 -260 -2255 0 -2255 0 0 260 0 260
2255 0 2255 0 0 -260z m-2580 -2445 c7 -9 10 -26 6 -42 -7 -29 -13 -43 -85
-196 -47 -98 -57 -140 -60 -251 -1 -43 -7 -103 -12 -134 -8 -53 -8 -59 13 -77
13 -11 29 -33 37 -48 8 -15 18 -27 23 -27 4 0 8 -7 8 -15 0 -8 5 -15 10 -15 6
0 10 -6 10 -14 0 -8 7 -16 15 -20 8 -3 15 -12 15 -21 0 -8 4 -15 9 -15 4 0 6
11 3 25 -3 19 0 25 13 25 9 0 19 -9 22 -20 4 -13 11 -19 22 -16 25 8 43 -9 39
-35 -2 -19 -9 -24 -30 -24 -26 1 -27 0 -10 -19 35 -40 95 -99 87 -85 -4 8 1 5
11 -6 10 -11 25 -31 32 -45 7 -14 28 -36 47 -49 19 -13 35 -28 35 -34 0 -10
32 -41 90 -85 19 -15 61 -53 93 -84 32 -32 64 -58 71 -58 8 0 16 -8 18 -18 7
-23 68 -69 68 -50 -1 7 -7 24 -15 38 -14 27 -5 50 21 50 14 0 79 -40 105 -65
20 -19 30 -19 23 -1 -3 8 3 17 14 21 11 3 25 19 31 35 14 43 53 41 80 -4 12
-18 20 -44 19 -57 -3 -22 1 -24 52 -27 30 -2 59 -7 65 -13 13 -13 27 -11 19 4
-6 10 -4 10 7 0 7 -7 21 -13 30 -13 11 0 22 -15 31 -45 9 -25 11 -45 7 -45 -5
0 -9 5 -9 10 0 6 -4 10 -9 10 -6 0 -1 -20 10 -45 23 -52 18 -88 -18 -126 -21
-23 -22 -29 -12 -55 18 -43 19 -58 7 -65 -7 -5 -3 -18 12 -38 12 -18 24 -46
27 -64 3 -18 9 -40 14 -49 5 -10 7 -18 3 -18 -3 0 18 -28 48 -62 30 -35 74
-94 97 -133 24 -38 62 -92 84 -118 22 -26 37 -51 33 -54 -3 -3 -1 -12 5 -19 7
-8 7 -14 -1 -19 -5 -3 -10 1 -10 9 0 8 -16 32 -35 53 -19 21 -35 43 -35 49 0
6 -7 17 -15 24 -8 7 -29 38 -47 69 -17 31 -55 79 -82 106 -28 28 -69 71 -90
98 -47 56 -64 62 -34 10 12 -20 16 -33 9 -29 -13 8 -35 55 -33 69 1 4 -2 7 -7
7 -5 0 -37 18 -70 40 -66 44 -80 49 -61 23 7 -10 -1 -3 -19 15 -41 43 -40 62
2 28 17 -15 56 -38 85 -52 31 -15 50 -30 45 -36 -4 -7 0 -9 11 -5 10 4 23 -1
33 -13 10 -11 22 -20 27 -20 6 0 5 5 -2 12 -7 7 -12 20 -12 30 0 10 -8 18 -17
19 -12 0 -14 2 -5 6 10 4 8 9 -7 20 -12 8 -26 11 -31 8 -6 -3 -10 -2 -10 4 0
5 5 13 12 17 8 5 6 11 -7 20 -15 11 -20 11 -30 -3 -14 -18 -39 -8 -31 12 3 9
-4 15 -22 17 -15 2 -26 8 -25 14 4 21 -38 2 -49 -22 -8 -16 -7 -36 0 -66 7
-27 8 -44 2 -46 -6 -2 -10 -19 -10 -38 0 -20 -4 -33 -8 -30 -12 7 -14 84 -2
91 7 4 7 11 2 18 -15 20 -23 49 -11 41 8 -4 9 1 4 17 -11 35 -33 77 -45 84
-15 9 -12 -1 10 -37 29 -48 25 -59 -5 -15 -14 20 -29 37 -34 37 -4 0 -4 -21 0
-47 11 -67 11 -73 -3 -68 -8 3 -13 25 -14 53 -1 75 -24 181 -24 113 0 -13 -5
-21 -12 -19 -7 3 -14 29 -16 63 -4 70 -16 101 -26 64 -19 -70 -30 -99 -37 -99
-5 0 -4 12 1 26 13 33 13 104 0 104 -5 0 -10 -8 -11 -17 0 -13 -3 -11 -11 7
-6 14 -12 20 -15 13 -2 -7 1 -22 7 -35 8 -19 8 -20 -2 -6 -11 15 -13 15 -25 0
-11 -15 -12 -13 -3 11 12 33 13 124 3 129 -5 2 -16 20 -25 41 -10 20 -22 37
-27 37 -5 0 -1 -16 9 -35 12 -24 16 -48 13 -82 -7 -66 -16 -71 -44 -26 -12 21
-29 42 -36 46 -7 4 -13 14 -13 22 0 7 -10 15 -22 17 -13 2 -22 8 -22 13 1 6
-7 16 -18 24 -12 8 -18 21 -15 32 4 16 2 17 -14 8 -15 -7 -21 -6 -25 6 -3 8
-11 12 -17 8 -6 -4 -8 0 -4 10 4 11 -6 30 -29 54 -23 26 -33 31 -29 18 7 -20
6 -20 -9 -1 -19 24 -21 40 -3 31 6 -4 2 2 -10 12 -12 10 -31 29 -42 43 -19 24
-25 10 -7 -19 7 -11 6 -12 -5 -6 -12 8 -12 6 0 -8 14 -18 5 -22 -23 -11 -9 3
-16 13 -16 21 0 7 -11 24 -25 37 -13 13 -22 26 -18 29 3 4 1 7 -6 7 -7 0 -10
4 -7 8 3 5 -3 18 -12 28 -17 18 -59 86 -109 176 -12 21 -36 55 -53 75 -17 19
-36 47 -41 60 -9 23 -11 24 -27 11 -21 -18 -44 -17 -50 1 -3 8 0 11 7 7 7 -5
11 4 12 26 3 93 10 168 20 222 6 34 13 70 14 81 5 39 25 104 34 107 13 5 60
85 82 140 11 28 29 71 40 94 24 54 25 100 2 113 -16 9 -16 10 3 11 12 0 27 -7
34 -15z m-3120 -546 c0 -4 -8 -12 -17 -18 -17 -9 -17 -11 2 -26 20 -15 20 -16
-2 -31 -13 -9 -23 -22 -23 -29 0 -22 34 -5 52 25 21 37 60 48 94 26 45 -30 51
-77 16 -118 -17 -20 -72 -24 -89 -7 -6 6 -24 13 -42 15 -23 4 -31 1 -31 -10 0
-9 -7 -16 -15 -16 -11 0 -15 12 -15 51 0 37 -5 56 -17 65 -17 13 -17 15 0 28
9 7 17 21 17 30 0 9 10 20 23 25 24 9 47 4 47 -10z m-790 -53 c13 -36 27 -63
30 -61 4 3 17 32 29 65 19 51 26 60 47 60 24 0 24 -1 24 -100 0 -82 -3 -100
-15 -100 -16 0 -19 18 -15 90 2 54 -10 46 -35 -23 -25 -66 -50 -62 -79 13
l-21 55 -3 -67 c-2 -52 -6 -68 -17 -68 -12 0 -15 19 -15 100 0 97 1 100 23
100 19 0 27 -11 47 -64z m450 -34 l0 -98 -54 -2 c-61 -1 -74 8 -83 61 -4 29
-1 40 21 62 20 20 33 25 52 21 21 -6 24 -3 24 24 0 23 4 30 20 30 19 0 20 -7
20 -98z m2998 -204 c16 -16 15 -34 -4 -53 -15 -14 -14 -15 12 -11 16 3 30 10
32 16 7 21 29 7 77 -53 102 -125 144 -186 245 -357 146 -248 142 -239 124
-257 -13 -14 -17 -13 -29 3 -8 11 -14 14 -15 7 0 -7 -5 -13 -11 -13 -8 0 -8 4
0 14 15 18 4 111 -15 127 -16 14 -18 5 -4 -21 14 -27 -6 -36 -31 -14 -11 9
-23 31 -27 48 -10 38 -30 43 -65 16 -29 -23 -35 -61 -13 -79 7 -6 16 -24 19
-39 3 -15 35 -61 70 -102 l65 -74 -23 -31 c-12 -16 -35 -55 -50 -85 -15 -30
-60 -92 -99 -136 -39 -45 -93 -112 -120 -149 -31 -43 -52 -63 -54 -54 -8 23
-40 60 -44 50 -1 -5 -10 -11 -18 -13 -8 -2 -17 -5 -20 -8 -13 -13 -70 -27 -76
-19 -3 5 -10 9 -16 9 -7 0 -6 -6 2 -15 10 -12 10 -15 -3 -15 -9 0 -19 -9 -22
-20 -5 -17 -15 -20 -70 -20 -52 0 -63 -3 -61 -16 0 -9 -8 -21 -19 -28 -11 -6
-22 -12 -25 -14 -2 -2 2 -7 10 -12 10 -7 11 -10 3 -10 -7 0 -13 -7 -13 -16 0
-10 -7 -14 -22 -12 -13 2 -22 8 -21 13 1 6 -34 11 -84 12 -63 1 -83 -1 -75 -9
8 -8 2 -16 -21 -28 -59 -31 -86 -33 -107 -8 -16 20 -21 21 -40 10 -18 -11 -24
-9 -50 18 -17 17 -30 37 -30 45 0 8 -6 15 -14 15 -21 0 -40 27 -24 33 7 3 -3
6 -23 6 -23 1 -39 7 -43 16 -7 20 -26 19 -43 -2 -10 -13 -16 -15 -19 -5 -3 6
-10 12 -15 12 -6 0 -7 -4 -4 -10 4 -6 -5 -10 -20 -10 -18 0 -29 -6 -32 -20 -4
-14 -14 -20 -34 -20 -16 0 -29 4 -29 10 0 5 -9 14 -19 19 -14 8 -25 6 -45 -10
-34 -26 -113 -24 -108 4 4 24 -57 23 -103 -3 -36 -20 -90 -26 -112 -12 -6 4
-10 21 -8 37 3 31 -14 88 -22 69 -2 -6 -15 -9 -28 -6 -20 3 -24 1 -19 -12 5
-13 -1 -16 -32 -18 -56 -2 -55 -2 -101 6 -36 5 -46 3 -60 -14 -16 -18 -19 -18
-41 -4 -13 8 -37 16 -53 16 -21 1 -28 5 -25 15 5 11 -20 17 -61 12 -4 0 -10 8
-14 19 -5 12 -20 21 -41 25 -18 2 -48 11 -66 18 -30 13 -35 12 -46 -4 -8 -10
-26 -17 -44 -17 -25 0 -29 3 -25 19 4 14 -1 21 -19 24 l-23 4 23 8 c32 11 27
25 -8 25 -31 0 -43 19 -12 21 11 1 9 4 -8 9 -22 7 -23 8 -4 9 25 1 55 30 33
32 -11 0 -11 2 1 6 8 4 21 12 28 20 11 11 4 13 -43 13 -52 0 -57 2 -52 20 3
13 0 20 -9 20 -8 0 -11 6 -8 15 4 8 1 15 -6 15 -7 0 -9 8 -5 20 5 17 2 20 -22
21 -23 2 -24 2 -5 6 12 2 22 9 22 14 0 6 5 7 10 4 6 -3 10 3 10 14 0 19 15 26
42 22 12 -2 9 47 -3 51 -7 2 -7 12 0 31 9 24 16 28 43 25 18 -2 34 -9 34 -15
3 -24 4 -25 19 -13 8 7 15 20 15 30 0 9 -7 17 -15 17 -8 0 -15 -5 -15 -10 0
-5 -7 -4 -15 3 -19 16 -14 22 22 26 15 1 29 7 31 13 2 5 9 8 16 5 7 -3 19 2
26 11 7 8 20 15 29 15 14 0 14 2 1 11 -11 8 -6 9 20 5 31 -5 32 -5 10 4 -20 9
-22 13 -10 20 8 5 10 10 4 10 -6 0 -11 6 -11 13 0 6 -2 19 -4 27 -2 8 6 19 19
25 12 5 22 14 22 20 0 5 -18 67 -39 137 -21 70 -36 130 -33 133 3 3 20 5 37 5
32 0 33 -1 56 -82 l23 -82 26 80 c26 78 27 79 60 79 33 0 34 -2 53 -65 10 -36
23 -69 27 -74 5 -5 19 25 31 68 l22 76 39 0 c21 0 38 -1 38 -2 0 -2 -11 -39
-25 -83 -24 -80 -22 -105 11 -105 35 0 42 27 43 162 1 73 5 136 10 141 5 5 21
7 37 5 28 -3 29 -5 34 -67 5 -63 5 -63 24 -42 21 23 47 27 75 12 18 -10 105 9
144 30 15 8 17 6 12 -13 -3 -13 1 -31 8 -40 12 -15 17 -16 57 -2 24 8 53 13
63 10 10 -2 16 -2 13 1 -3 3 -1 14 5 25 7 14 7 23 -1 33 -9 11 -7 15 12 20 13
3 36 2 50 -4 28 -11 184 7 263 29 22 6 50 14 63 17 12 3 22 9 22 13 0 5 20 18
45 30 24 12 60 37 80 57 l35 35 37 -36 c41 -39 64 -44 83 -21 14 16 70 20 86
6 5 -5 32 -11 61 -15 48 -6 54 -4 68 17 18 29 56 47 94 47 16 0 34 7 41 15 15
18 22 19 38 3z m-3238 -230 c4 -57 7 -66 20 -58 8 5 32 10 53 10 85 0 107 -38
107 -185 l0 -105 -35 0 -35 0 0 96 c0 52 -5 104 -10 115 -14 25 -54 25 -80 -1
-17 -17 -20 -33 -20 -115 l0 -95 -35 0 -35 0 0 198 c0 109 3 202 7 206 4 4 19
6 33 4 23 -3 25 -7 30 -70z m-190 7 l0 -55 35 0 c32 0 35 -2 35 -30 0 -28 -3
-30 -35 -30 l-36 0 3 -82 3 -83 33 -3 c28 -3 32 -7 32 -32 0 -33 -24 -45 -69
-35 -53 11 -66 37 -69 141 -4 85 -6 94 -23 94 -14 0 -19 7 -19 30 0 23 4 30
20 30 16 0 20 7 20 34 0 26 7 39 28 55 15 11 30 21 35 21 4 0 7 -25 7 -55z
m543 -35 c4 -15 14 -20 37 -20 45 0 94 -33 115 -77 22 -46 16 -120 -13 -161
-45 -62 -148 -77 -208 -29 -74 58 -70 199 7 244 21 13 26 20 18 29 -6 7 -8 18
-4 24 11 17 42 11 48 -10z m667 -39 c32 -22 60 -77 60 -118 l0 -33 -100 0
c-60 0 -100 -4 -100 -10 0 -20 41 -50 68 -50 15 0 38 7 50 16 20 14 24 13 47
-3 29 -21 28 -30 -7 -56 -37 -28 -114 -33 -158 -10 -88 46 -101 198 -21 260
44 35 115 36 161 4z m-291 4 c37 -19 46 -44 24 -61 -21 -16 -43 -18 -43 -4 0
20 -46 33 -69 20 -29 -15 -13 -36 39 -50 62 -17 90 -45 90 -91 0 -96 -122
-132 -199 -60 -37 35 -39 48 -7 62 20 9 27 7 49 -15 29 -29 45 -32 72 -12 29
21 11 43 -49 60 -60 18 -76 36 -76 86 0 48 38 80 95 80 25 0 59 -7 74 -15z
m3218 -967 c-16 -35 -28 -47 -44 -48 -13 0 -28 -9 -35 -20 -16 -25 -89 -28
-108 -5 -6 8 -15 14 -18 13 -4 -1 -14 1 -22 5 -8 3 -20 7 -27 9 -23 6 11 52
47 65 19 7 69 12 110 13 41 1 84 5 95 9 11 5 21 8 22 7 1 -1 -8 -23 -20 -48z"/>
<path d="M1741 3634 c-36 -45 -22 -121 25 -143 51 -23 104 21 104 88 0 26 -29
79 -30 54 0 -20 -39 -15 -52 7 -17 26 -22 25 -47 -6z"/>
<path d="M9283 4888 c-26 -72 -28 -83 -15 -87 9 -2 23 6 30 18 8 11 25 21 37
21 12 0 29 -10 37 -21 7 -12 21 -20 30 -18 14 4 12 15 -14 87 -25 70 -33 82
-53 82 -19 0 -27 -12 -52 -82z"/>
<path d="M9860 4950 c0 -15 -7 -20 -29 -20 -36 0 -53 -20 -54 -64 -1 -50 16
-66 74 -64 l49 1 0 83 c0 77 -2 84 -20 84 -13 0 -20 -7 -20 -20z"/>
<path d="M9277 4062 c-20 -22 -22 -55 -4 -70 6 -6 28 -14 47 -19 46 -12 54
-43 12 -43 -17 0 -32 6 -36 15 -8 22 -36 18 -36 -5 0 -41 92 -56 125 -20 30
33 13 68 -40 82 -45 12 -59 33 -30 45 9 3 24 -2 34 -11 21 -19 41 -21 41 -3 0
42 -83 63 -113 29z"/>
<path d="M9283 2968 c-26 -72 -28 -83 -15 -87 9 -2 23 6 30 18 8 11 25 21 37
21 12 0 29 -10 37 -21 7 -12 21 -20 30 -18 14 4 12 15 -14 87 -25 70 -33 82
-53 82 -19 0 -27 -12 -52 -82z"/>
<path d="M9720 3025 c0 -10 -10 -15 -29 -15 -26 0 -31 -6 -44 -42 l-14 -43
-12 43 c-9 32 -17 42 -32 42 -22 0 -21 -9 7 -79 16 -39 18 -71 4 -71 -5 0 -10
-7 -10 -16 0 -10 7 -14 23 -12 18 2 28 19 53 86 34 91 50 95 56 12 3 -41 6
-45 31 -48 26 -3 37 11 17 23 -5 3 -10 22 -10 41 0 19 5 34 10 34 6 0 10 7 10
15 0 8 -4 15 -10 15 -5 0 -10 7 -10 15 0 8 -9 15 -20 15 -11 0 -20 -7 -20 -15z"/>
<path d="M10160 2990 c-29 -55 1 -116 52 -106 21 4 28 2 25 -7 -3 -7 -20 -11
-46 -9 -42 2 -50 -5 -29 -26 15 -15 63 -16 89 -2 16 9 19 22 19 89 l0 78 -50
2 c-39 0 -52 -3 -60 -19z"/>
<path d="M12590 1739 c-55 -25 -75 -42 -109 -94 -22 -34 -26 -51 -26 -117 0
-69 3 -80 30 -120 17 -23 51 -56 75 -73 40 -27 53 -30 120 -30 67 0 80 3 120
30 24 17 58 50 75 73 27 40 30 51 30 120 0 66 -4 83 -26 117 -34 52 -54 69
-109 94 -57 26 -123 26 -180 0z m162 -126 c38 -37 68 -74 68 -83 0 -9 -31 -47
-70 -85 l-70 -69 -22 21 -21 22 42 40 42 40 -93 3 c-92 3 -93 3 -93 28 0 25 1
25 93 28 l92 3 -42 39 c-40 39 -41 40 -23 60 10 11 21 20 24 20 3 0 36 -30 73
-67z"/>
<path d="M0 10 c0 -7 2400 -10 7180 -10 4780 0 7180 3 7180 10 0 7 -2400 10
-7180 10 -4780 0 -7180 -3 -7180 -10z"/>
</g>
</svg>
